<svg width="764" height="764" viewBox="0 0 764 764" fill="none" xmlns="http://www.w3.org/2000/svg">
<path d="M382 0C344.421 0 320.307 28.268 306.937 54.9603C293.709 82.5272 286.731 112.675 286.5 143.25L286.5 319.495L191 367.245V358.125C191 351.793 188.485 345.72 184.007 341.243C179.53 336.765 173.457 334.25 167.125 334.25H119.375C113.043 334.25 106.97 336.765 102.493 341.243C98.0154 345.72 95.5 351.793 95.5 358.125V414.995L39.6325 442.929C27.7252 448.874 17.7097 458.018 10.7093 469.337C3.70886 480.656 0.000449567 493.701 0 507.009L0 573C0.00159533 576.466 0.757683 579.889 2.21574 583.034C3.67379 586.178 5.79886 588.966 8.44331 591.207C11.0878 593.447 14.1882 595.084 17.5292 596.005C20.8702 596.926 24.3717 597.109 27.7905 596.541L105.671 583.553L120.617 628.294C122.209 633.037 125.25 637.159 129.311 640.079C133.372 643 138.248 644.571 143.25 644.571C148.252 644.571 153.128 643 157.189 640.079C161.25 637.159 164.291 633.037 165.883 628.294L185.222 570.326L290.75 552.706L308.656 660.287L245.721 723.221C242.374 726.561 240.093 730.819 239.168 735.456C238.244 740.092 238.716 744.9 240.527 749.267C242.338 753.635 245.404 757.367 249.338 759.99C253.272 762.613 257.897 764.008 262.625 764H501.375C506.103 764.008 510.728 762.613 514.662 759.99C518.596 757.367 521.662 753.635 523.473 749.267C525.284 744.9 525.756 740.092 524.832 735.456C523.907 730.819 521.626 726.561 518.279 723.221L455.344 660.287L473.25 552.706L578.778 570.326L598.117 628.294C599.709 633.037 602.75 637.159 606.811 640.079C610.872 643 615.748 644.571 620.75 644.571C625.752 644.571 630.628 643 634.689 640.079C638.75 637.159 641.791 633.037 643.383 628.294L658.329 583.553L736.162 596.541C739.584 597.117 743.091 596.94 746.438 596.022C749.785 595.105 752.891 593.469 755.541 591.228C758.191 588.987 760.321 586.195 761.782 583.047C763.243 579.899 764 576.47 764 573L764 507.009C764 493.701 760.291 480.656 753.291 469.337C746.29 458.018 736.275 448.874 724.367 442.929L668.5 414.995V358.125C668.5 351.793 665.985 345.72 661.507 341.243C657.03 336.765 650.957 334.25 644.625 334.25H596.875C590.543 334.25 584.47 336.765 579.993 341.243C575.515 345.72 573 351.793 573 358.125V367.245L477.5 319.495L477.5 143.25C477.5 116.128 470.815 82.5598 457.063 54.9603C443.693 28.2203 419.579 0 382 0Z" fill="#2B3B52"/>
<path d="M316.762 71.0899C328.382 45.306 349.34 18 382 18C414.661 18 435.618 45.2599 447.238 71.0899C459.19 97.7501 465 130.176 465 156.375V326.622L461.307 551.897L445.744 655.816L500.441 716.609C503.35 719.835 505.333 723.948 506.136 728.427C506.94 732.906 506.529 737.549 504.956 741.769C503.382 745.988 500.717 749.593 497.298 752.126C493.878 754.66 489.859 756.008 485.75 756H278.25C274.141 756.008 270.122 754.66 266.703 752.126C263.283 749.593 260.618 745.988 259.044 741.769C257.471 737.549 257.06 732.906 257.864 728.427C258.667 723.948 260.65 719.835 263.559 716.609L318.256 655.816L302.694 551.897L299 326.622L299 156.375C299.201 126.84 305.266 97.7187 316.762 71.0899Z" fill="#F2F2F2" fill-opacity="0.73"/>
</svg>
